<?xml version="1.0" encoding="UTF-8" standalone="no"?>
<!DOCTYPE svg PUBLIC "-//W3C//DTD SVG 1.1//EN"
 "http://www.w3.org/Graphics/SVG/1.1/DTD/svg11.dtd">
<!-- Generated by graphviz version 2.42.3 (20191010.1750)
 -->
<!-- Title: %3 Pages: 1 -->
<svg width="1375pt" height="476pt"
 viewBox="0.00 0.00 1375.13 476.00" xmlns="http://www.w3.org/2000/svg" xmlns:xlink="http://www.w3.org/1999/xlink">
<g id="graph0" class="graph" transform="scale(1 1) rotate(0) translate(4 472)">
<title>%3</title>
<polygon fill="white" stroke="transparent" points="-4,4 -4,-472 1371.13,-472 1371.13,4 -4,4"/>
<!-- 0 -->
<g id="node1" class="node">
<title>0</title>
<ellipse fill="none" stroke="black" cx="580.89" cy="-306" rx="40.09" ry="18"/>
<text text-anchor="middle" x="580.89" y="-302.3" font-family="Times,serif" font-size="14.00">Rename</text>
</g>
<!-- 15 -->
<g id="node10" class="node">
<title>15</title>
<ellipse fill="none" stroke="black" cx="614.89" cy="-234" rx="27" ry="18"/>
<text text-anchor="middle" x="614.89" y="-230.3" font-family="Times,serif" font-size="14.00">+</text>
</g>
<!-- 0&#45;&gt;15 -->
<g id="edge18" class="edge">
<title>0&#45;&gt;15</title>
<path fill="none" stroke="black" d="M589.12,-288.05C593.15,-279.77 598.08,-269.62 602.54,-260.42"/>
<polygon fill="black" stroke="black" points="605.75,-261.83 606.97,-251.31 599.45,-258.77 605.75,-261.83"/>
</g>
<!-- 5 -->
<g id="node2" class="node">
<title>5</title>
<ellipse fill="none" stroke="black" cx="569.89" cy="-378" rx="50.89" ry="18"/>
<text text-anchor="middle" x="569.89" y="-374.3" font-family="Times,serif" font-size="14.00">LambdaOp</text>
</g>
<!-- 5&#45;&gt;0 -->
<g id="edge1" class="edge">
<title>5&#45;&gt;0</title>
<path fill="none" stroke="black" d="M572.61,-359.7C573.82,-351.98 575.28,-342.71 576.63,-334.11"/>
<polygon fill="black" stroke="black" points="580.11,-334.53 578.2,-324.1 573.19,-333.44 580.11,-334.53"/>
</g>
<!-- 1 -->
<g id="node3" class="node">
<title>1</title>
<ellipse fill="none" stroke="black" cx="81.89" cy="-306" rx="81.79" ry="18"/>
<text text-anchor="middle" x="81.89" y="-302.3" font-family="Times,serif" font-size="14.00">input cols=[clicked]</text>
</g>
<!-- 3 -->
<g id="node7" class="node">
<title>3</title>
<ellipse fill="none" stroke="black" cx="351.89" cy="-234" rx="67.69" ry="18"/>
<text text-anchor="middle" x="351.89" y="-230.3" font-family="Times,serif" font-size="14.00">TargetEncoding</text>
</g>
<!-- 1&#45;&gt;3 -->
<g id="edge5" class="edge">
<title>1&#45;&gt;3</title>
<path fill="none" stroke="black" d="M132.68,-291.83C178.88,-279.85 247.01,-262.19 295.02,-249.74"/>
<polygon fill="black" stroke="black" points="296.15,-253.07 304.95,-247.17 294.39,-246.29 296.15,-253.07"/>
</g>
<!-- 2 -->
<g id="node4" class="node">
<title>2</title>
<ellipse fill="none" stroke="black" cx="978.89" cy="-306" rx="83.39" ry="18"/>
<text text-anchor="middle" x="978.89" y="-302.3" font-family="Times,serif" font-size="14.00">DaysSincePublished</text>
</g>
<!-- 9 -->
<g id="node13" class="node">
<title>9</title>
<ellipse fill="none" stroke="black" cx="864.89" cy="-234" rx="50.09" ry="18"/>
<text text-anchor="middle" x="864.89" y="-230.3" font-family="Times,serif" font-size="14.00">FillMedian</text>
</g>
<!-- 2&#45;&gt;9 -->
<g id="edge9" class="edge">
<title>2&#45;&gt;9</title>
<path fill="none" stroke="black" d="M952.45,-288.76C936.21,-278.79 915.26,-265.93 897.93,-255.29"/>
<polygon fill="black" stroke="black" points="899.6,-252.2 889.24,-249.95 895.93,-258.17 899.6,-252.2"/>
</g>
<!-- 12 -->
<g id="node5" class="node">
<title>12</title>
<ellipse fill="none" stroke="black" cx="978.89" cy="-378" rx="181.97" ry="18"/>
<text text-anchor="middle" x="978.89" y="-374.3" font-family="Times,serif" font-size="14.00">input cols=[publish_time, publish_time_promo]</text>
</g>
<!-- 12&#45;&gt;2 -->
<g id="edge2" class="edge">
<title>12&#45;&gt;2</title>
<path fill="none" stroke="black" d="M978.89,-359.7C978.89,-351.98 978.89,-342.71 978.89,-334.11"/>
<polygon fill="black" stroke="black" points="982.39,-334.1 978.89,-324.1 975.39,-334.1 982.39,-334.1"/>
</g>
<!-- 11 -->
<g id="node6" class="node">
<title>11</title>
<ellipse fill="none" stroke="black" cx="1272.89" cy="-378" rx="94.48" ry="18"/>
<text text-anchor="middle" x="1272.89" y="-374.3" font-family="Times,serif" font-size="14.00">input cols=[timestamp]</text>
</g>
<!-- 11&#45;&gt;2 -->
<g id="edge3" class="edge">
<title>11&#45;&gt;2</title>
<path fill="none" stroke="black" d="M1216.21,-363.5C1166.62,-351.7 1094.64,-334.56 1042.97,-322.26"/>
<polygon fill="black" stroke="black" points="1043.46,-318.78 1032.92,-319.86 1041.84,-325.59 1043.46,-318.78"/>
</g>
<!-- 10 -->
<g id="node14" class="node">
<title>10</title>
<ellipse fill="none" stroke="black" cx="665.89" cy="-90" rx="27" ry="18"/>
<text text-anchor="middle" x="665.89" y="-86.3" font-family="Times,serif" font-size="14.00">+</text>
</g>
<!-- 3&#45;&gt;10 -->
<g id="edge12" class="edge">
<title>3&#45;&gt;10</title>
<path fill="none" stroke="black" d="M384.61,-218.21C445.46,-190.68 575.28,-131.98 634.85,-105.04"/>
<polygon fill="black" stroke="black" points="636.45,-108.16 644.12,-100.85 633.57,-101.78 636.45,-108.16"/>
</g>
<!-- 6 -->
<g id="node8" class="node">
<title>6</title>
<ellipse fill="none" stroke="black" cx="351.89" cy="-306" rx="170.07" ry="18"/>
<text text-anchor="middle" x="351.89" y="-302.3" font-family="Times,serif" font-size="14.00">input cols=[ad_id, document_id, platform...]</text>
</g>
<!-- 6&#45;&gt;3 -->
<g id="edge4" class="edge">
<title>6&#45;&gt;3</title>
<path fill="none" stroke="black" d="M351.89,-287.7C351.89,-279.98 351.89,-270.71 351.89,-262.11"/>
<polygon fill="black" stroke="black" points="355.39,-262.1 351.89,-252.1 348.39,-262.1 355.39,-262.1"/>
</g>
<!-- 6&#45;&gt;15 -->
<g id="edge19" class="edge">
<title>6&#45;&gt;15</title>
<path fill="none" stroke="black" d="M411.57,-289.12C463.77,-275.22 537.74,-255.54 580.57,-244.13"/>
<polygon fill="black" stroke="black" points="581.48,-247.51 590.25,-241.56 579.68,-240.75 581.48,-247.51"/>
</g>
<!-- 4 -->
<g id="node9" class="node">
<title>4</title>
<ellipse fill="none" stroke="black" cx="614.89" cy="-162" rx="48.19" ry="18"/>
<text text-anchor="middle" x="614.89" y="-158.3" font-family="Times,serif" font-size="14.00">Categorify</text>
</g>
<!-- 4&#45;&gt;10 -->
<g id="edge11" class="edge">
<title>4&#45;&gt;10</title>
<path fill="none" stroke="black" d="M626.98,-144.41C633.45,-135.53 641.53,-124.44 648.65,-114.67"/>
<polygon fill="black" stroke="black" points="651.53,-116.65 654.59,-106.51 645.87,-112.53 651.53,-116.65"/>
</g>
<!-- 15&#45;&gt;4 -->
<g id="edge6" class="edge">
<title>15&#45;&gt;4</title>
<path fill="none" stroke="black" d="M614.89,-215.7C614.89,-207.98 614.89,-198.71 614.89,-190.11"/>
<polygon fill="black" stroke="black" points="618.39,-190.1 614.89,-180.1 611.39,-190.1 618.39,-190.1"/>
</g>
<!-- 7 -->
<g id="node11" class="node">
<title>7</title>
<ellipse fill="none" stroke="black" cx="648.89" cy="-450" rx="102.08" ry="18"/>
<text text-anchor="middle" x="648.89" y="-446.3" font-family="Times,serif" font-size="14.00">input cols=[geo_location]</text>
</g>
<!-- 7&#45;&gt;5 -->
<g id="edge7" class="edge">
<title>7&#45;&gt;5</title>
<path fill="none" stroke="black" d="M629.77,-432.05C619.55,-423 606.83,-411.73 595.75,-401.91"/>
<polygon fill="black" stroke="black" points="597.83,-399.08 588.03,-395.07 593.19,-404.32 597.83,-399.08"/>
</g>
<!-- 7&#45;&gt;15 -->
<g id="edge16" class="edge">
<title>7&#45;&gt;15</title>
<path fill="none" stroke="black" d="M647.77,-431.94C645.63,-402.4 640.23,-339.89 629.89,-288 628.17,-279.33 625.73,-270.02 623.32,-261.65"/>
<polygon fill="black" stroke="black" points="626.66,-260.6 620.45,-252.02 619.96,-262.6 626.66,-260.6"/>
</g>
<!-- 14 -->
<g id="node17" class="node">
<title>14</title>
<ellipse fill="none" stroke="black" cx="727.89" cy="-378" rx="50.89" ry="18"/>
<text text-anchor="middle" x="727.89" y="-374.3" font-family="Times,serif" font-size="14.00">LambdaOp</text>
</g>
<!-- 7&#45;&gt;14 -->
<g id="edge15" class="edge">
<title>7&#45;&gt;14</title>
<path fill="none" stroke="black" d="M668.02,-432.05C678.23,-423 690.95,-411.73 702.04,-401.91"/>
<polygon fill="black" stroke="black" points="704.6,-404.32 709.76,-395.07 699.95,-399.08 704.6,-404.32"/>
</g>
<!-- 8 -->
<g id="node12" class="node">
<title>8</title>
<ellipse fill="none" stroke="black" cx="716.89" cy="-162" rx="36" ry="18"/>
<text text-anchor="middle" x="716.89" y="-158.3" font-family="Times,serif" font-size="14.00">LogOp</text>
</g>
<!-- 8&#45;&gt;10 -->
<g id="edge10" class="edge">
<title>8&#45;&gt;10</title>
<path fill="none" stroke="black" d="M705.06,-144.76C698.6,-135.89 690.47,-124.74 683.3,-114.89"/>
<polygon fill="black" stroke="black" points="686.02,-112.69 677.31,-106.67 680.37,-116.81 686.02,-112.69"/>
</g>
<!-- 9&#45;&gt;8 -->
<g id="edge8" class="edge">
<title>9&#45;&gt;8</title>
<path fill="none" stroke="black" d="M835.65,-219.17C811.45,-207.72 777.02,-191.44 751.45,-179.35"/>
<polygon fill="black" stroke="black" points="752.67,-176.05 742.13,-174.94 749.67,-182.38 752.67,-176.05"/>
</g>
<!-- 17 -->
<g id="node18" class="node">
<title>17</title>
<ellipse fill="none" stroke="black" cx="665.89" cy="-18" rx="365.84" ry="18"/>
<text text-anchor="middle" x="665.89" y="-14.3" font-family="Times,serif" font-size="14.00">output cols=[publish_time_since_published, publish_time_promo_since_published, geo_location...]</text>
</g>
<!-- 10&#45;&gt;17 -->
<g id="edge20" class="edge">
<title>10&#45;&gt;17</title>
<path fill="none" stroke="black" d="M665.89,-71.7C665.89,-63.98 665.89,-54.71 665.89,-46.11"/>
<polygon fill="black" stroke="black" points="669.39,-46.1 665.89,-36.1 662.39,-46.1 669.39,-46.1"/>
</g>
<!-- 16 -->
<g id="node15" class="node">
<title>16</title>
<ellipse fill="none" stroke="black" cx="852.89" cy="-162" rx="81.79" ry="18"/>
<text text-anchor="middle" x="852.89" y="-158.3" font-family="Times,serif" font-size="14.00">input cols=[clicked]</text>
</g>
<!-- 16&#45;&gt;10 -->
<g id="edge13" class="edge">
<title>16&#45;&gt;10</title>
<path fill="none" stroke="black" d="M813.23,-146.15C779.18,-133.41 730.67,-115.25 698.75,-103.3"/>
<polygon fill="black" stroke="black" points="699.6,-99.88 689.01,-99.65 697.15,-106.44 699.6,-99.88"/>
</g>
<!-- 13 -->
<g id="node16" class="node">
<title>13</title>
<ellipse fill="none" stroke="black" cx="722.89" cy="-306" rx="40.09" ry="18"/>
<text text-anchor="middle" x="722.89" y="-302.3" font-family="Times,serif" font-size="14.00">Rename</text>
</g>
<!-- 13&#45;&gt;15 -->
<g id="edge17" class="edge">
<title>13&#45;&gt;15</title>
<path fill="none" stroke="black" d="M701.04,-290.83C684.09,-279.85 660.49,-264.56 642.28,-252.75"/>
<polygon fill="black" stroke="black" points="644.12,-249.78 633.83,-247.27 640.32,-255.65 644.12,-249.78"/>
</g>
<!-- 14&#45;&gt;13 -->
<g id="edge14" class="edge">
<title>14&#45;&gt;13</title>
<path fill="none" stroke="black" d="M726.66,-359.7C726.11,-351.98 725.44,-342.71 724.83,-334.11"/>
<polygon fill="black" stroke="black" points="728.32,-333.83 724.11,-324.1 721.34,-334.33 728.32,-333.83"/>
</g>
</g>
</svg>
