<?xml version="1.0" encoding="UTF-8" standalone="no"?>
<!DOCTYPE svg PUBLIC "-//W3C//DTD SVG 1.1//EN"
 "http://www.w3.org/Graphics/SVG/1.1/DTD/svg11.dtd">
<!-- Generated by graphviz version 2.42.3 (20191010.1750)
 -->
<!-- Title: %3 Pages: 1 -->
<svg width="350pt" height="332pt"
 viewBox="0.00 0.00 349.83 332.00" xmlns="http://www.w3.org/2000/svg" xmlns:xlink="http://www.w3.org/1999/xlink">
<g id="graph0" class="graph" transform="scale(1 1) rotate(0) translate(4 328)">
<title>%3</title>
<polygon fill="white" stroke="transparent" points="-4,4 -4,-328 345.83,-328 345.83,4 -4,4"/>
<!-- 0 -->
<g id="node1" class="node">
<title>0</title>
<ellipse fill="none" stroke="black" cx="219.74" cy="-162" rx="48.19" ry="18"/>
<text text-anchor="middle" x="219.74" y="-158.3" font-family="Times,serif" font-size="14.00">Categorify</text>
</g>
<!-- 3 -->
<g id="node6" class="node">
<title>3</title>
<ellipse fill="none" stroke="black" cx="152.74" cy="-90" rx="27" ry="18"/>
<text text-anchor="middle" x="152.74" y="-86.3" font-family="Times,serif" font-size="14.00">+</text>
</g>
<!-- 0&#45;&gt;3 -->
<g id="edge3" class="edge">
<title>0&#45;&gt;3</title>
<path fill="none" stroke="black" d="M204.2,-144.76C195.2,-135.37 183.75,-123.41 173.94,-113.15"/>
<polygon fill="black" stroke="black" points="176.27,-110.52 166.82,-105.72 171.21,-115.36 176.27,-110.52"/>
</g>
<!-- 4 -->
<g id="node2" class="node">
<title>4</title>
<ellipse fill="none" stroke="black" cx="228.74" cy="-234" rx="55.49" ry="18"/>
<text text-anchor="middle" x="228.74" y="-230.3" font-family="Times,serif" font-size="14.00">JoinExternal</text>
</g>
<!-- 4&#45;&gt;0 -->
<g id="edge1" class="edge">
<title>4&#45;&gt;0</title>
<path fill="none" stroke="black" d="M226.51,-215.7C225.52,-207.98 224.33,-198.71 223.22,-190.11"/>
<polygon fill="black" stroke="black" points="226.68,-189.58 221.94,-180.1 219.74,-190.47 226.68,-189.58"/>
</g>
<!-- 1 -->
<g id="node3" class="node">
<title>1</title>
<ellipse fill="none" stroke="black" cx="228.74" cy="-306" rx="113.18" ry="18"/>
<text text-anchor="middle" x="228.74" y="-302.3" font-family="Times,serif" font-size="14.00">input cols=[userId, movieId]</text>
</g>
<!-- 1&#45;&gt;4 -->
<g id="edge5" class="edge">
<title>1&#45;&gt;4</title>
<path fill="none" stroke="black" d="M228.74,-287.7C228.74,-279.98 228.74,-270.71 228.74,-262.11"/>
<polygon fill="black" stroke="black" points="232.24,-262.1 228.74,-252.1 225.24,-262.1 232.24,-262.1"/>
</g>
<!-- 2 -->
<g id="node4" class="node">
<title>2</title>
<ellipse fill="none" stroke="black" cx="94.74" cy="-162" rx="50.89" ry="18"/>
<text text-anchor="middle" x="94.74" y="-158.3" font-family="Times,serif" font-size="14.00">LambdaOp</text>
</g>
<!-- 2&#45;&gt;3 -->
<g id="edge4" class="edge">
<title>2&#45;&gt;3</title>
<path fill="none" stroke="black" d="M108.48,-144.41C116.02,-135.31 125.48,-123.9 133.71,-113.96"/>
<polygon fill="black" stroke="black" points="136.59,-115.97 140.28,-106.04 131.2,-111.51 136.59,-115.97"/>
</g>
<!-- 5 -->
<g id="node5" class="node">
<title>5</title>
<ellipse fill="none" stroke="black" cx="77.74" cy="-234" rx="77.19" ry="18"/>
<text text-anchor="middle" x="77.74" y="-230.3" font-family="Times,serif" font-size="14.00">input cols=[rating]</text>
</g>
<!-- 5&#45;&gt;2 -->
<g id="edge2" class="edge">
<title>5&#45;&gt;2</title>
<path fill="none" stroke="black" d="M81.94,-215.7C83.83,-207.9 86.11,-198.51 88.22,-189.83"/>
<polygon fill="black" stroke="black" points="91.62,-190.65 90.58,-180.1 84.82,-189 91.62,-190.65"/>
</g>
<!-- 6 -->
<g id="node7" class="node">
<title>6</title>
<ellipse fill="none" stroke="black" cx="152.74" cy="-18" rx="152.97" ry="18"/>
<text text-anchor="middle" x="152.74" y="-14.3" font-family="Times,serif" font-size="14.00">output cols=[movieId, genres, userId...]</text>
</g>
<!-- 3&#45;&gt;6 -->
<g id="edge6" class="edge">
<title>3&#45;&gt;6</title>
<path fill="none" stroke="black" d="M152.74,-71.7C152.74,-63.98 152.74,-54.71 152.74,-46.11"/>
<polygon fill="black" stroke="black" points="156.24,-46.1 152.74,-36.1 149.24,-46.1 156.24,-46.1"/>
</g>
</g>
</svg>
